<svg width="670.4px" height="124.439990234375px" xmlns="http://www.w3.org/2000/svg" viewBox="-85.19999999999999 12.780004882812499 670.4 124.439990234375" style="background: rgba(0, 0, 0, 0) none repeat scroll 0% 0%;" preserveAspectRatio="xMidYMid"><defs><filter id="editing-extrusion" x="-100%" y="-100%" width="300%" height="300%"><feFlood result="color1" flood-color="#444"></feFlood><feConvolveMatrix order="8,8" divisor="1" kernelMatrix="1 0 0 0 0 0 0 0 0 1 0 0 0 0 0 0 0 0 1 0 0 0 0 0 0 0 0 1 0 0 0 0 0 0 0 0 1 0 0 0 0 0 0 0 0 1 0 0 0 0 0 0 0 0 1 0 0 0 0 0 0 0 0 1" in="SourceAlpha" result="extrude"></feConvolveMatrix><feComposite in="color1" in2="extrude" result="comp-extrude" operator="in"></feComposite><feOffset dx="4" dy="4" in="comp-extrude" result="offset-extrude"></feOffset><feMerge><feMergeNode in="offset-extrude"></feMergeNode><feMergeNode in="SourceGraphic"></feMergeNode></feMerge></filter></defs><g filter="url(#editing-extrusion)"><g transform="translate(12.850008249282837, 104.76000022888184)"><path d="M14.14 0L0.51 0L7.81-38.91L8.51-42.24L22.21-42.24L14.14 0ZM40.13-3.78L40.13-3.78L40.13-3.78Q38.40 1.28 31.74 1.28L31.74 1.28L31.74 1.28Q26.82 1.28 23.42-4.61L23.42-4.61L23.42-4.61Q19.97-10.50 19.33-20.10L19.33-20.10L19.33-20.10Q26.37-32.96 31.23-38.27L31.23-38.27L31.23-38.27Q35.90-43.33 40.77-43.33L40.77-43.33L40.77-43.33Q43.39-43.33 45.28-41.92L45.28-41.92L45.28-41.92Q47.17-40.51 47.62-38.27L47.62-38.27L47.62-38.27Q45.44-37.38 44.42-36.67L44.42-36.67L44.42-36.67Q41.86-34.75 38.40-30.46L38.40-30.46L32.58-23.49L32.58-23.49Q31.17-21.82 30.59-21.06L30.59-21.06L30.59-21.06Q31.55-15.68 34.43-10.37L34.43-10.37L34.43-10.37Q37.18-5.31 40.13-3.78ZM69.70-10.82L69.70-10.82L69.70-10.82Q71.30-9.73 71.30-7.33L71.30-7.33L71.30-7.33Q71.30-4.93 70.08-3.39L70.08-3.39L70.08-3.39Q68.86-1.86 66.88-0.83L66.88-0.83L66.88-0.83Q62.78 1.28 58.37 1.28L58.37 1.28L58.37 1.28Q53.95 1.28 51.36 0.32L51.36 0.32L51.36 0.32Q48.77-0.64 47.04-2.43L47.04-2.43L47.04-2.43Q43.65-5.82 43.65-12.03L43.65-12.03L43.65-12.03Q43.65-21.70 48.90-27.58L48.90-27.58L48.90-27.58Q54.53-33.92 64.32-33.92L64.32-33.92L64.32-33.92Q70.40-33.92 73.41-31.36L73.41-31.36L73.41-31.36Q75.65-29.44 75.65-26.30L75.65-26.30L75.65-26.30Q75.65-15.04 56.19-15.04L56.19-15.04L56.19-15.04Q55.94-13.38 55.94-11.97L55.94-11.97L55.94-11.97Q55.94-9.02 57.25-7.90L57.25-7.90L57.25-7.90Q58.56-6.78 60.99-6.78L60.99-6.78L60.99-6.78Q63.42-6.78 66.02-7.90L66.02-7.90L66.02-7.90Q68.61-9.02 69.70-10.82ZM56.64-17.79L56.64-17.79L56.64-17.79Q61.18-17.79 63.81-20.61L63.81-20.61L63.81-20.61Q66.43-23.30 66.43-27.58L66.43-27.58L66.43-27.58Q66.43-29.06 65.89-29.86L65.89-29.86L65.89-29.86Q65.34-30.66 64.26-30.66L64.26-30.66L64.26-30.66Q63.17-30.66 62.24-30.24L62.24-30.24L62.24-30.24Q61.31-29.82 60.35-28.42L60.35-28.42L60.35-28.42Q57.98-25.22 56.64-17.79ZM101.06-31.55L101.06-31.55L101.06-31.55Q103.17-33.92 106.82-33.92L106.82-33.92L106.82-33.92Q109.06-33.92 110.78-32.70L110.78-32.70L110.78-32.70Q112.51-31.49 112.51-29.22L112.51-29.22L112.51-29.22Q112.51-26.94 111.81-24.51L111.81-24.51L111.81-24.51Q111.10-22.08 110.02-19.58L110.02-19.58L110.02-19.58Q107.84-14.72 104.83-10.69L104.83-10.69L104.83-10.69Q100.61-4.86 96.54-1.79L96.54-1.79L96.54-1.79Q92.48 1.28 88.06 1.28L88.06 1.28L88.06 1.28Q84.48 1.28 82.30 0.45L82.30 0.45L82.30 0.45Q81.92-12.99 81.44-17.79L81.44-17.79L81.44-17.79Q80.96-22.59 80.58-25.22L80.58-25.22L80.58-25.22Q79.94-30.34 78.02-31.55L78.02-31.55L78.02-31.55Q79.49-32.83 80.93-33.38L80.93-33.38L80.93-33.38Q82.37-33.92 85.34-33.92L85.34-33.92L85.34-33.92Q88.32-33.92 90.43-31.58L90.43-31.58L90.43-31.58Q92.54-29.25 92.96-25.12L92.96-25.12L92.96-25.12Q93.38-20.99 93.38-16L93.38-16L93.38-16Q93.38-11.01 92.99-4.99L92.99-4.99L92.99-4.99Q94.98-6.40 97.09-10.69L97.09-10.69L97.09-10.69Q99.97-16.64 100.99-23.81L100.99-23.81L100.99-23.81Q101.31-25.98 101.31-28.29L101.31-28.29L101.31-28.29Q101.31-30.59 101.06-31.55ZM129.60-3.52L129.60-3.52L129.60-3.52Q127.62 1.28 121.28 1.28L121.28 1.28L121.28 1.28Q118.02 1.28 115.97-0.96L115.97-0.96L115.97-0.96Q114.24-2.94 114.24-4.93L114.24-4.93L114.24-4.93Q114.24-10.11 116.61-20.22L116.61-20.22L118.98-32.64L131.97-33.92L128.06-13.70L128.06-13.70Q126.98-8.96 126.98-7.30L126.98-7.30L126.98-7.30Q126.98-3.65 129.60-3.52ZM120.13-41.54L120.13-41.54L120.13-41.54Q120.13-44.03 122.21-45.38L122.21-45.38L122.21-45.38Q124.29-46.72 127.30-46.72L127.30-46.72L127.30-46.72Q130.30-46.72 132.13-45.38L132.13-45.38L132.13-45.38Q133.95-44.03 133.95-41.54L133.95-41.54L133.95-41.54Q133.95-39.04 131.94-37.76L131.94-37.76L131.94-37.76Q129.92-36.48 126.91-36.48L126.91-36.48L126.91-36.48Q123.90-36.48 122.02-37.76L122.02-37.76L122.02-37.76Q120.13-39.04 120.13-41.54ZM162.11 1.28L162.11 1.28L162.11 1.28Q154.37 1.28 154.37-4.74L154.37-4.74L154.37-4.74Q154.43-6.40 154.94-9.22L154.94-9.22L156.10-15.10L156.10-15.10Q157.82-23.42 157.82-25.28L157.82-25.28L157.82-25.28Q157.82-28.99 155.65-28.99L155.65-28.99L155.65-28.99Q152.00-28.99 150.08-19.46L150.08-19.46L146.30 0L133.44 1.28L140.10-32.70L150.59-33.92L149.57-27.65L149.57-27.65Q152.58-33.92 161.79-33.92L161.79-33.92L161.79-33.92Q166.27-33.92 168.16-32.03L168.16-32.03L168.16-32.03Q170.05-30.14 170.05-25.92L170.05-25.92L170.05-25.92Q170.05-21.95 168.00-12.67L168.00-12.67L168.00-12.67Q167.04-8.51 167.04-6.94L167.04-6.94L167.04-6.94Q167.04-5.38 167.90-4.48L167.90-4.48L167.90-4.48Q168.77-3.58 170.05-3.46L170.05-3.46L170.05-3.46Q169.41-1.28 167.20 0L167.20 0L167.20 0Q164.99 1.28 162.11 1.28ZM221.76-13.25L221.76-13.25L221.76-13.25Q223.42-12.03 223.42-9.44L223.42-9.44L223.42-9.44Q223.42-6.85 222.30-5.02L222.30-5.02L222.30-5.02Q221.18-3.20 219.01-1.79L219.01-1.79L219.01-1.79Q214.34 1.22 206.18 1.22L206.18 1.22L206.18 1.22Q198.02 1.22 193.57-3.04L193.57-3.04L193.57-3.04Q189.12-7.30 189.12-14.85L189.12-14.85L189.12-14.85Q189.12-25.54 194.69-33.66L194.69-33.66L194.69-33.66Q198.91-39.68 206.46-42.24L206.46-42.24L206.46-42.24Q210.37-43.52 214.21-43.52L214.21-43.52L214.21-43.52Q218.05-43.52 220.42-43.01L220.42-43.01L220.42-43.01Q222.78-42.50 224.58-41.47L224.58-41.47L224.58-41.47Q228.48-39.23 228.48-35.65L228.48-35.65L228.48-35.65Q228.48-32.38 225.41-29.95L225.41-29.95L225.41-29.95Q222.59-27.78 220.29-27.78L220.29-27.78L220.29-27.78Q217.98-27.78 217.02-28.10L217.02-28.10L217.02-28.10Q217.28-30.40 217.28-31.90L217.28-31.90L217.28-31.90Q217.28-33.41 217.22-34.50L217.22-34.50L217.22-34.50Q217.15-35.58 216.83-36.61L216.83-36.61L216.83-36.61Q216.19-38.98 214.24-38.98L214.24-38.98L214.24-38.98Q212.29-38.98 210.34-37.15L210.34-37.15L210.34-37.15Q208.38-35.33 206.72-32.26L206.72-32.26L206.72-32.26Q202.94-25.28 202.94-17.02L202.94-17.02L202.94-17.02Q202.94-13.06 205.18-10.78L205.18-10.78L205.18-10.78Q207.42-8.51 212.22-8.51L212.22-8.51L212.22-8.51Q215.81-8.51 219.20-10.88L219.20-10.88L219.20-10.88Q220.67-11.90 221.76-13.25ZM231.52-1.92L231.52-1.92L231.52-1.92Q230.02-3.58 229.34-6.21L229.34-6.21L229.34-6.21Q228.67-8.83 228.67-13.12L228.67-13.12L228.67-13.12Q228.67-17.41 230.14-21.31L230.14-21.31L230.14-21.31Q231.62-25.22 234.30-28.03L234.30-28.03L234.30-28.03Q239.81-33.92 248.90-33.92L248.90-33.92L248.90-33.92Q252.16-33.92 254.53-32.83L254.53-32.83L265.47-33.92L260.74-8.96L260.74-8.96Q260.54-8.19 260.54-6.78L260.54-6.78L260.54-6.78Q260.54-5.38 261.41-4.48L261.41-4.48L261.41-4.48Q262.27-3.58 263.55-3.46L263.55-3.46L263.55-3.46Q262.91-1.28 260.58 0L260.58 0L260.58 0Q258.24 1.28 255.62 1.28L255.62 1.28L255.62 1.28Q252.99 1.28 251.23 0.29L251.23 0.29L251.23 0.29Q249.47-0.70 248.96-2.37L248.96-2.37L248.96-2.37Q247.94-0.77 245.76 0.26L245.76 0.26L245.76 0.26Q243.58 1.28 240.67 1.28L240.67 1.28L240.67 1.28Q237.76 1.28 235.39 0.51L235.39 0.51L235.39 0.51Q233.02-0.26 231.52-1.92ZM245.02-27.90L245.02-27.90L245.02-27.90Q244.29-26.75 243.65-24.80L243.65-24.80L243.65-24.80Q243.01-22.85 241.95-17.63L241.95-17.63L241.95-17.63Q240.90-12.42 240.90-8.70L240.90-8.70L240.90-8.70Q240.90-4.99 241.47-3.90L241.47-3.90L241.47-3.90Q242.05-2.82 243.07-2.82L243.07-2.82L243.07-2.82Q245.12-2.82 246.62-4.77L246.62-4.77L246.62-4.77Q248.13-6.72 248.70-10.18L248.70-10.18L252.10-28.93L252.10-28.93Q250.75-30.08 249.18-30.08L249.18-30.08L249.18-30.08Q247.62-30.08 246.69-29.57L246.69-29.57L246.69-29.57Q245.76-29.06 245.02-27.90ZM315.01 1.28L315.01 1.28L315.01 1.28Q307.26 1.28 307.26-4.74L307.26-4.74L307.26-4.74Q307.26-7.36 308.38-12.45L308.38-12.45L308.38-12.45Q309.50-17.54 309.89-19.58L309.89-19.58L309.89-19.58Q310.78-24.26 310.78-25.73L310.78-25.73L310.78-25.73Q310.78-28.99 308.35-28.99L308.35-28.99L308.35-28.99Q306.75-28.99 305.22-26.78L305.22-26.78L305.22-26.78Q303.68-24.58 302.98-20.16L302.98-20.16L299.01 0L286.53 1.28L289.98-16.13L289.98-16.13Q290.56-19.01 291.07-22.27L291.07-22.27L291.07-22.27Q291.58-25.54 291.58-26.05L291.58-26.05L291.58-26.05Q291.58-28.99 289.41-28.99L289.41-28.99L289.41-28.99Q287.94-28.99 286.34-26.82L286.34-26.82L286.34-26.82Q284.74-24.64 283.84-20.16L283.84-20.16L279.94 0L267.33 1.28L274.05-32.64L284.48-33.92L283.39-27.46L283.39-27.46Q285.06-30.91 288.13-32.42L288.13-32.42L288.13-32.42Q291.20-33.92 296.00-33.92L296.00-33.92L296.00-33.92Q298.75-33.92 300.54-32.58L300.54-32.58L300.54-32.58Q302.34-31.23 302.91-29.06L302.91-29.06L302.91-29.06Q304.00-31.30 306.78-32.61L306.78-32.61L306.78-32.61Q309.57-33.92 312.99-33.92L312.99-33.92L312.99-33.92Q316.42-33.92 318.11-33.18L318.11-33.18L318.11-33.18Q319.81-32.45 320.83-31.23L320.83-31.23L320.83-31.23Q322.56-28.99 322.56-24.90L322.56-24.90L322.56-24.90Q322.56-20.86 320.83-12.48L320.83-12.48L320.83-12.48Q319.94-8.38 319.94-6.88L319.94-6.88L319.94-6.88Q319.94-5.38 320.80-4.48L320.80-4.48L320.80-4.48Q321.66-3.58 322.94-3.46L322.94-3.46L322.94-3.46Q322.30-1.28 320.10 0L320.10 0L320.10 0Q317.89 1.28 315.01 1.28ZM330.66-1.92L330.66-1.92L330.66-1.92Q329.15-3.58 328.48-6.21L328.48-6.21L328.48-6.21Q327.81-8.83 327.81-13.12L327.81-13.12L327.81-13.12Q327.81-17.41 329.28-21.31L329.28-21.31L329.28-21.31Q330.75-25.22 333.44-28.03L333.44-28.03L333.44-28.03Q338.94-33.92 348.03-33.92L348.03-33.92L348.03-33.92Q351.30-33.92 353.66-32.83L353.66-32.83L364.61-33.92L359.87-8.96L359.87-8.96Q359.68-8.19 359.68-6.78L359.68-6.78L359.68-6.78Q359.68-5.38 360.54-4.48L360.54-4.48L360.54-4.48Q361.41-3.58 362.69-3.46L362.69-3.46L362.69-3.46Q362.05-1.28 359.71 0L359.71 0L359.71 0Q357.38 1.28 354.75 1.28L354.75 1.28L354.75 1.28Q352.13 1.28 350.37 0.29L350.37 0.29L350.37 0.29Q348.61-0.70 348.10-2.37L348.10-2.37L348.10-2.37Q347.07-0.77 344.90 0.26L344.90 0.26L344.90 0.26Q342.72 1.28 339.81 1.28L339.81 1.28L339.81 1.28Q336.90 1.28 334.53 0.51L334.53 0.51L334.53 0.51Q332.16-0.26 330.66-1.92ZM344.16-27.90L344.16-27.90L344.16-27.90Q343.42-26.75 342.78-24.80L342.78-24.80L342.78-24.80Q342.14-22.85 341.09-17.63L341.09-17.63L341.09-17.63Q340.03-12.42 340.03-8.70L340.03-8.70L340.03-8.70Q340.03-4.99 340.61-3.90L340.61-3.90L340.61-3.90Q341.18-2.82 342.21-2.82L342.21-2.82L342.21-2.82Q344.26-2.82 345.76-4.77L345.76-4.77L345.76-4.77Q347.26-6.72 347.84-10.18L347.84-10.18L351.23-28.93L351.23-28.93Q349.89-30.08 348.32-30.08L348.32-30.08L348.32-30.08Q346.75-30.08 345.82-29.57L345.82-29.57L345.82-29.57Q344.90-29.06 344.16-27.90ZM388.10-17.98L388.10-17.98L388.10-17.98Q390.40-22.08 390.40-26.24L390.40-26.24L390.40-26.24Q390.40-28.99 388.42-28.99L388.42-28.99L388.42-28.99Q386.88-28.99 385.28-26.37L385.28-26.37L385.28-26.37Q383.62-23.74 383.10-20.35L383.10-20.35L379.78 0L366.53 1.28L373.06-32.64L383.62-33.92L382.46-27.46L382.46-27.46Q385.60-33.92 392.64-33.92L392.64-33.92L392.64-33.92Q396.35-33.92 398.37-32L398.37-32L398.37-32Q400.38-30.08 400.38-26.14L400.38-26.14L400.38-26.14Q400.38-22.21 397.79-19.71L397.79-19.71L397.79-19.71Q395.20-17.22 390.78-17.22L390.78-17.22L390.78-17.22Q388.86-17.22 388.10-17.98ZM405.95-26.75L405.95-26.75L405.95-26.75Q408.13-29.82 411.42-31.87L411.42-31.87L411.42-31.87Q414.72-33.92 418.75-33.92L418.75-33.92L418.75-33.92Q422.78-33.92 424.70-32.64L424.70-32.64L437.25-33.92L432.90-9.34L432.90-9.34Q430.66 3.20 425.92 8.13L425.92 8.13L425.92 8.13Q421.38 12.80 412.54 12.80L412.54 12.80L412.54 12.80Q405.82 12.80 401.98 10.69L401.98 10.69L401.98 10.69Q398.14 8.58 398.14 5.06L398.14 5.06L398.14 5.06Q398.14 2.43 400.13 0.93L400.13 0.93L400.13 0.93Q402.11-0.58 405.18-0.58L405.18-0.58L405.18-0.58Q407.87-0.58 409.92 0.64L409.92 0.64L409.92 0.64Q411.14 1.28 411.71 2.18L411.71 2.18L411.71 2.18Q410.24 3.46 410.24 5.57L410.24 5.57L410.24 5.57Q410.24 8.32 412.80 8.32L412.80 8.32L412.80 8.32Q417.09 8.32 419.52-1.79L419.52-1.79L419.52-1.79Q420.22-4.54 420.80-7.30L420.80-7.30L420.80-7.30Q417.92-3.78 411.39-3.78L411.39-3.78L411.39-3.78Q406.85-3.78 404.22-5.95L404.22-5.95L404.22-5.95Q401.60-8.13 401.60-13.25L401.60-13.25L401.60-13.25Q401.60-16.45 402.69-20.06L402.69-20.06L402.69-20.06Q403.78-23.68 405.95-26.75ZM414.27-13.06L414.27-13.06L414.27-13.06Q414.27-8.70 416.51-8.70L416.51-8.70L416.51-8.70Q418.05-8.70 419.52-10.37L419.52-10.37L419.52-10.37Q420.67-11.71 421.12-13.70L421.12-13.70L424.38-30.14L424.38-30.14Q424.06-30.21 423.74-30.34L423.74-30.34L423.74-30.34Q423.10-30.59 422.27-30.59L422.27-30.59L422.27-30.59Q418.37-30.59 416.06-24.19L416.06-24.19L416.06-24.19Q414.27-19.20 414.27-13.06ZM453.70 1.28L453.70 1.28L453.70 1.28Q439.62 1.28 439.62-11.97L439.62-11.97L439.62-11.97Q439.62-21.38 444.80-27.46L444.80-27.46L444.80-27.46Q450.30-33.92 459.84-33.92L459.84-33.92L459.84-33.92Q466.75-33.92 470.27-30.72L470.27-30.72L470.27-30.72Q473.79-27.52 473.79-20.80L473.79-20.80L473.79-20.80Q473.79-10.56 468.29-4.61L468.29-4.61L468.29-4.61Q462.91 1.28 453.70 1.28ZM455.36-26.56L455.36-26.56L455.36-26.56Q454.59-24.83 453.98-22.24L453.98-22.24L453.98-22.24Q453.38-19.65 452.61-15.55L452.61-15.55L452.61-15.55Q451.84-11.46 451.84-6.40L451.84-6.40L451.84-6.40Q451.84-4.74 452.38-3.65L452.38-3.65L452.38-3.65Q452.93-2.56 454.40-2.56L454.40-2.56L454.40-2.56Q455.87-2.56 456.80-3.26L456.80-3.26L456.80-3.26Q457.73-3.97 458.43-5.63L458.43-5.63L458.43-5.63Q459.71-8.58 460.74-14.05L460.74-14.05L460.74-14.05Q461.76-19.52 461.86-21.89L461.86-21.89L461.86-21.89Q461.95-24.26 461.95-26.02L461.95-26.02L461.95-26.02Q461.95-27.78 461.44-28.93L461.44-28.93L461.44-28.93Q460.93-30.08 459.49-30.08L459.49-30.08L459.49-30.08Q458.05-30.08 457.09-29.18L457.09-29.18L457.09-29.18Q456.13-28.29 455.36-26.56Z" fill="#ccc"></path></g></g><style>text {
  font-size: 64px;
  font-family: Arial Black;
  dominant-baseline: central;
  text-anchor: middle;
}</style></svg>